<svg id="Layer_1" data-name="Layer 1" xmlns="http://www.w3.org/2000/svg" viewBox="0 0 220 86.77"><defs><style>.cls-1,.cls-3{fill:#1d1d1b;}.cls-2{fill:#700f0a;}.cls-3{fill-rule:evenodd;}</style></defs><path class="cls-1" d="M41.21,70.16a8.34,8.34,0,0,0-3.74,7.94c.27,4.68,4.53,5.64,7.63,4A1.52,1.52,0,0,0,46.05,81c.22-1.29.47-2.59.71-3.88A2.07,2.07,0,0,0,47,76h0a20.13,20.13,0,0,0-3.38-.14c-.71-.07-.61.5-.65.86s.42.29.66.31A8.07,8.07,0,0,0,45,77c.53-.07.57.18.48.58-.2.9-.41,1.8-.56,2.7a1,1,0,0,1-.48.74,3.41,3.41,0,0,1-5.2-1.74,7.51,7.51,0,0,1,2.05-7.63,3.46,3.46,0,0,1,5.13-.15.43.43,0,0,0,.62,0c.48-.3.63-.55.18-1.06A4.59,4.59,0,0,0,41.21,70.16Zm2.58,5.94h0Z"/><path class="cls-1" d="M139.94,69.47c-1.85,0-3.7,0-5.55,0-.56,0-.84.07-1,.74-.78,4.1-1.63,8.19-2.48,12.42,2.33,0,4.58,0,6.83,0,.7,0,.6-.53.67-.89.11-.55-.38-.35-.63-.36-1.51,0-3,0-4.53,0-.48,0-.68-.13-.56-.65.29-1.25.58-2.51.79-3.78.09-.56.35-.61.81-.6,1.2,0,2.4,0,3.6,0,.78,0,.64-.56.71-.93.11-.54-.39-.33-.63-.33-1.14,0-2.29,0-3.43,0-.51,0-.72-.08-.57-.68a23.54,23.54,0,0,0,.55-2.9c.09-.64.35-.87,1-.84,1.45,0,2.9,0,4.35,0,.67,0,.64-.43.69-.85C140.7,69.22,140.2,69.47,139.94,69.47Z"/><path class="cls-1" d="M86,73.14a2.48,2.48,0,0,0-2.7-.2,13.48,13.48,0,0,0-1.42.83c-.29.16-.45.51-.89.5v-1s0,0,0-.06a.28.28,0,0,0,0-.12c-.64-.35-1-.28-1.18.54-.51,2.75-1.07,5.49-1.6,8.24,0,.26-.44.7.17.75.42,0,1,.29,1.18-.49.23-1.29.53-2.58.72-3.89.26-1.76.7-3.34,2.57-4.1,1.59-.65,2.57,0,2.43,1.7a9.89,9.89,0,0,1-.17,1.09c-.32,1.66-.67,3.31-1,5,0,.25-.39.75.28.73.39,0,1,.27,1.05-.49s.32-1.63.48-2.44c.26-1.33.56-2.65.78-4A2.55,2.55,0,0,0,86,73.14Zm-5.75.1h0a.08.08,0,0,0,0,0C80.28,73.36,80.23,73.29,80.23,73.24Z"/><path class="cls-1" d="M104.12,72.68a3,3,0,0,0-1.75.45c-.62.37-1.22.78-1.88,1.22a1.9,1.9,0,0,0-.06-.42c-.13-.34.5-.94-.39-1s-.72.47-.81.93c-.53,2.65-1.06,5.3-1.55,8-.05.26-.53.76.21.83.49,0,1,.15,1.16-.65.18-1.28.43-2.54.7-3.8s.37-2.94,2-3.72c.8-.39,1.58-.88,2.41-.35s.72,1.35.57,2.16l-.12.64c-.34,1.68-.69,3.37-1,5.06,0,.25-.25.7.3.65.35,0,.89.33,1-.39.44-2.3,1-4.58,1.34-6.88A2.11,2.11,0,0,0,104.12,72.68Z"/><path class="cls-1" d="M57.54,72.92c-.46,0-1-.24-1.15.61-.26,1.67-.73,3.31-1,5a3.62,3.62,0,0,1-2.24,2.81,1.8,1.8,0,0,1-2,0,1.65,1.65,0,0,1-.49-1.84c.41-2.08.8-4.16,1.2-6.24-.34-.48-.82-.48-1.29,0-.2.87-.46,1.72-.59,2.6-.26,1.66-.89,3.26-.77,5A2.06,2.06,0,0,0,52,82.76a6,6,0,0,0,2.41-1.3c.13-.11.27-.31.48-.19s.06.33.1.5-.46.75.25.84.84-.12,1-.77c.49-2.72,1.06-5.43,1.58-8.14C57.79,73.44,58.17,73,57.54,72.92Z"/><path class="cls-1" d="M111.74,72.7A3,3,0,0,0,109,75c-.25,1.12.21,2,1.49,2.78.52.32,1.07.61,1.59.93a1.51,1.51,0,0,1,.88,1.5,1.66,1.66,0,0,1-1.15,1.33,2.7,2.7,0,0,1-3.12-.73c-.37-.39-.6-.35-1,0-.52.46,0,.64.21.85a3.55,3.55,0,0,0,1.74,1c.52.13.58.34.25.75s-.55.68.12,1,.53,1,0,1.35a3.66,3.66,0,0,1-.92.42c-.2.06-.46,0-.37.36s.31.27.52.23A3.45,3.45,0,0,0,111,86a1.24,1.24,0,0,0,.09-2.1c-.36-.3-.24-.46-.09-.75a1.27,1.27,0,0,1,1-.57,2.88,2.88,0,0,0,2.37-2.4c.23-1.26-.56-2-1.49-2.63-.61-.41-1.29-.72-1.89-1.14a1.33,1.33,0,0,1,.16-2.39,2.2,2.2,0,0,1,2.52.14c.7.58,1,.31,1.39-.33A3.91,3.91,0,0,0,111.74,72.7Z"/><path class="cls-1" d="M96.45,69.49c-.42,0-1.08-.39-1.25.47-.78,4-1.55,7.94-2.38,11.91-.13.66,0,.85.66.73.62.21.68-.23.77-.68q1.16-5.86,2.32-11.74C96.62,69.94,97,69.51,96.45,69.49Z"/><path class="cls-1" d="M168.24,73c.09-.41-.37-.31-.6-.33a2.69,2.69,0,0,0-1.63.53c-.58.35-.89,1-1.59,1.45V73.43c.09-.2.2-.49-.1-.49s-.77-.33-.86.29c-.79,2.94-1.19,6-1.85,8.93-.06.3,0,.44.36.47.64,0,1-.08,1.13-.82.24-1.49.56-3,.87-4.44.48-2.28,1.39-3.1,3.65-3.38C168.2,73.92,168.17,73.37,168.24,73Z"/><path class="cls-1" d="M177.4,69.88c-.08-.56-.19-1.15-.88-1.24a.92.92,0,0,0-1.05.69.87.87,0,0,0,.66,1.2c.47.16.31.47.18.73a3.45,3.45,0,0,1-1.44,1.51c-.29.16-.26.34-.12.6s.33.13.51,0A4,4,0,0,0,177.4,70Z"/><path class="cls-1" d="M173.19,68.63a1,1,0,0,0-1.08.8.8.8,0,0,0,.69,1.07c.52.12.34.42.23.69a3.43,3.43,0,0,1-1.39,1.55c-.2.13-.44.25-.25.58s.45.14.67,0a3.74,3.74,0,0,0,2-2.95c0-.4,0-.55,0-.71A1,1,0,0,0,173.19,68.63Z"/><path class="cls-1" d="M35.77,69.08a4,4,0,0,0-2.08,3.36,1.57,1.57,0,0,0,.33,1,.78.78,0,0,0,1,.29,1,1,0,0,0,.72-.86c0-.36,0-.75-.39-.84-1-.25-.58-.79-.3-1.28a3,3,0,0,1,1.12-1.07c.25-.14.38-.33.25-.6S36,69,35.77,69.08Z"/><path class="cls-1" d="M32.44,69.08a4,4,0,0,0-2.08,3.36,1.57,1.57,0,0,0,.33,1,.77.77,0,0,0,1,.29.94.94,0,0,0,.71-.86c0-.36,0-.75-.38-.84-1-.25-.58-.79-.3-1.28a3,3,0,0,1,1.12-1.07c.25-.14.38-.33.25-.6S32.64,69,32.44,69.08Z"/><path class="cls-1" d="M167.4,81.12c-.37.53-.46,1.12.15,1.53s1.12,0,1.47-.53a.94.94,0,0,0,0-1.28C168.36,80.3,167.82,80.53,167.4,81.12Z"/><path class="cls-1" d="M96.41,66.22a1.23,1.23,0,0,0-1.15,1.1.89.89,0,0,0,1,.89,1.11,1.11,0,0,0,1-1.13A.94.94,0,0,0,96.41,66.22Z"/><path class="cls-1" d="M56.3,70.77a1,1,0,0,0,1-1c0-.52-.27-.83-.8-.81a.93.93,0,0,0-.91,1A.68.68,0,0,0,56.3,70.77Z"/><path class="cls-1" d="M53,70.76c.58,0,.91-.43,1-1.06-.14-.38-.3-.78-.87-.71a.93.93,0,0,0-.86,1A.68.68,0,0,0,53,70.76Z"/><path class="cls-1" d="M66.92,73.07c-1.63,2.68-2.8,5.59-4.43,8.51-.15-.91-.26-1.59-.37-2.28a.09.09,0,0,0,0-.14c0-2-.45-4-.67-5.92-.08-.64-.64-.26-1-.33s-.43.12-.38.44c.4,2.26.55,4.56,1.07,6.79l0,.32c0,.45.09.91.16,1.36s-.08.8.41.77,1.23.36,1.64-.41c1.54-3,3.11-6,4.67-8.93C67.92,72.82,67.75,72.8,66.92,73.07Zm-5,6.87a.06.06,0,0,0,0,0,.42.42,0,0,1,0,.1S62,80,62,79.94Zm.09,0v0Z"/><path class="cls-1" d="M151,68.4c-.43,0-1-.26-1.1.55-.22,1.43-.55,2.84-.84,4.25,0,.23.08.54-.25.63s-.37-.19-.51-.34a2.59,2.59,0,0,0-3-.61c-2.89,1-4.81,5-3.82,8a2.53,2.53,0,0,0,3.3,1.83,9.17,9.17,0,0,0,2.76-1.6,7,7,0,0,0-.11.76c0,.28-.33.7.3.76.47,0,.81,0,.93-.6.84-4.28,1.71-8.56,2.56-12.84C151.29,68.92,151.58,68.44,151,68.4ZM148.48,76c-.22.92-.4,1.86-.58,2.8a3.72,3.72,0,0,1-3.17,2.89A1.69,1.69,0,0,1,143,80.6a3.7,3.7,0,0,1-.26-1.55,5.8,5.8,0,0,1,2.36-4.76,2.18,2.18,0,0,1,3.12.42A1.32,1.32,0,0,1,148.48,76Z"/><path class="cls-1" d="M125,72.89c-.87-.06-.52.84-1,1.18-1.44-1.5-2.41-1.74-4-1-2.7,1.22-4.36,5.4-3.23,8.13a2.45,2.45,0,0,0,2.42,1.65,4.32,4.32,0,0,0,2.37-.89,3.32,3.32,0,0,1,1-.7c.21.25,0,.45,0,.65s-.29.66.25.72.85.07,1-.55c.54-2.86,1.1-5.73,1.68-8.59C125.62,73,125.43,72.91,125,72.89Zm-1.35,3c-.22,1-.41,1.92-.61,2.89a3.73,3.73,0,0,1-3.19,2.86,1.77,1.77,0,0,1-1.81-1.29,4,4,0,0,1-.2-1.38,5.93,5.93,0,0,1,2.34-4.69,2.2,2.2,0,0,1,3.2.42A1.26,1.26,0,0,1,123.66,75.93Z"/><path class="cls-1" d="M158.82,73.22a3.35,3.35,0,0,0-3.59-.1,6.1,6.1,0,0,0-3.32,6,3.48,3.48,0,0,0,3.2,3.67,5.34,5.34,0,0,0,3.1-.66c.57-.25.42-.51.14-.89s-.61,0-.85.09c-2.28,1.06-4.2-.08-4.24-2.48,0-.72.25-.88.91-.86,1.51,0,3,0,4.53,0,.29,0,.62.12.87-.15h0a1.75,1.75,0,0,0,.35-1.28C160,75.3,159.93,74,158.82,73.22Zm-2.15.57a1.83,1.83,0,0,1,2.08,2,2.88,2.88,0,0,1-.09,1.27h-5.15A3.84,3.84,0,0,1,156.67,73.79Z"/><path class="cls-1" d="M73.37,72.72c-4.3.52-5.78,6-4.11,8.55,1.25,1.92,3.88,1.94,5.86.73.25-.15.3-.31.09-.51s-.18-.59-.59-.4c-.22.1-.42.25-.65.34A2.68,2.68,0,0,1,70,79c0-.78.23-1,1-1a36.53,36.53,0,0,0,5.23-.09h0c.59-.35.45-1,.47-1.49C76.77,74.15,75.79,72.42,73.37,72.72Zm1.36,4.49.63-.09h0c-.09.16-.27.1-.42.1Zm-4.48-.13a3.68,3.68,0,0,1,3.07-3.29,1.82,1.82,0,0,1,2.13,2c0,.43,0,.86,0,1.29h0l-5.16,0c.22.06.44.1.66.14h-.24A.47.47,0,0,1,70.25,77.08Z"/><polygon class="cls-2" points="9.96 55.46 29.14 55.45 29.14 61.05 0 61.05 19.36 8.13 0.19 8.14 0.19 2.54 29.33 2.54 9.96 55.46"/><polygon class="cls-2" points="50.17 55.37 64.73 55.37 64.73 60.22 42.54 60.22 42.54 21.22 38.42 21.22 36.2 16.38 42.54 16.38 42.54 2.39 64.73 2.39 64.73 7.23 50.17 7.23 50.17 16.38 64.48 16.38 67.25 21.22 50.17 21.22 50.17 55.37"/><path class="cls-2" d="M112.52,16.23A33.72,33.72,0,0,0,110,12.87h0a23.37,23.37,0,0,0-5.23-4.74l-.06,0a32.3,32.3,0,0,0-15.58-5.5h0a25.1,25.1,0,0,0-2.58-.18h0c-1.32-.07-11.21-.13-11.21-.13v58.1H82.5v-11a1.19,1.19,0,0,1,.07-.31c.9-.09,1.8-.21,2.67-.34a5.64,5.64,0,0,1,2.42,1.13c4,2.94,14.43,10.5,14.43,10.5H112.8L93.64,46.85l.07-.06c1.61-.5,3.15-1,4.6-1.65a38.44,38.44,0,0,0,10.16-5.52,20.24,20.24,0,0,0,4.38-4.57h0v0a14.49,14.49,0,0,0,2.84-8.37A17.53,17.53,0,0,0,112.52,16.23ZM100.93,38.64c-4.23,2.9-9,4-14,4.28-1.13.06-2.28,0-3.42,0a5.25,5.25,0,0,1-1,0V7.77a5.21,5.21,0,0,1,.87-.08A29.13,29.13,0,0,1,97.3,10.24c5.12,2.49,8.82,6.28,10.15,12A15.35,15.35,0,0,1,100.93,38.64Z"/><path class="cls-2" d="M127.65,8.82v7.41h-6.12l2.6,5.07h3.52v39H135v-39h13.51v39h7.35V8.82c0-7.22-12.49-8.16-13.08-8.16h-2C138.7.66,127.65,1.6,127.65,8.82ZM135,16.23V9.06a2.48,2.48,0,0,1,2.49-2.49H146a2.48,2.48,0,0,1,2.49,2.49v7.17Z"/><polygon class="cls-2" points="203.59 2.59 187.51 19.79 186.79 20.55 186.59 20.55 186.59 60.44 179.23 60.44 179.23 20.55 179.03 20.55 178.31 19.79 162.23 2.59 171.43 2.59 182.91 14.87 194.4 2.59 203.59 2.59"/><path class="cls-3" d="M215.14,4.77c0-.91-.65-1.31-1.61-1.31a3.84,3.84,0,0,0-.9.09V6.1h.93C214.53,6.1,215.14,5.57,215.14,4.77Zm.63,3.13a11.52,11.52,0,0,0,.53,1.93h-.94a9.32,9.32,0,0,1-.46-1.68c-.21-1-.59-1.33-1.41-1.36h-.86v3h-.9V2.91a9.72,9.72,0,0,1,1.74-.15,2.89,2.89,0,0,1,2,.58,1.76,1.76,0,0,1,.55,1.33,1.86,1.86,0,0,1-1.32,1.78v0A1.81,1.81,0,0,1,215.77,7.9Zm2.49-4.25a4.85,4.85,0,0,0-2-1.93,5.2,5.2,0,0,0-5.14,0,4.85,4.85,0,0,0-2,1.93,5.33,5.33,0,0,0-.71,2.63,5.31,5.31,0,0,0,.7,2.6,4.93,4.93,0,0,0,1.94,1.93,5.18,5.18,0,0,0,5.2,0,4.93,4.93,0,0,0,1.94-1.93,5.27,5.27,0,0,0,0-5.23Zm.91,5.75a5.82,5.82,0,0,1-2.32,2.32,6.28,6.28,0,0,1-6.24,0,5.91,5.91,0,0,1-2.33-2.32,6.4,6.4,0,0,1-.83-3.12,6.42,6.42,0,0,1,.85-3.15A5.71,5.71,0,0,1,210.65.81,6.42,6.42,0,0,1,213.73,0a6.48,6.48,0,0,1,3.09.81,5.74,5.74,0,0,1,2.34,2.32,6.3,6.3,0,0,1,0,6.27Z"/></svg>